<svg xmlns="http://www.w3.org/2000/svg" xmlns:xlink="http://www.w3.org/1999/xlink" version="1.0" x="0" y="0" width="2400" height="1046.6829970592926" viewBox="37.05569396972656 67.02060638427734 265.88861206054685 115.95878723144531" preserveAspectRatio="xMidYMid meet" color-interpolation-filters="sRGB"><g><defs><linearGradient id="92" x1="0%" y1="0%" x2="100%" y2="0%"><stop offset="0%" stop-color="#fa71cd"></stop> <stop offset="100%" stop-color="#9b59b6"></stop></linearGradient><linearGradient id="93" x1="0%" y1="0%" x2="100%" y2="0%"><stop offset="0%" stop-color="#f9d423"></stop> <stop offset="100%" stop-color="#f83600"></stop></linearGradient><linearGradient id="94" x1="0%" y1="0%" x2="100%" y2="0%"><stop offset="0%" stop-color="#0064d2"></stop> <stop offset="100%" stop-color="#1cb0f6"></stop></linearGradient><linearGradient id="95" x1="0%" y1="0%" x2="100%" y2="0%"><stop offset="0%" stop-color="#f00978"></stop> <stop offset="100%" stop-color="#3f51b1"></stop></linearGradient><linearGradient id="96" x1="0%" y1="0%" x2="100%" y2="0%"><stop offset="0%" stop-color="#7873f5"></stop> <stop offset="100%" stop-color="#ec77ab"></stop></linearGradient><linearGradient id="97" x1="0%" y1="0%" x2="100%" y2="0%"><stop offset="0%" stop-color="#f9d423"></stop> <stop offset="100%" stop-color="#e14fad"></stop></linearGradient><linearGradient id="98" x1="0%" y1="0%" x2="100%" y2="0%"><stop offset="0%" stop-color="#009efd"></stop> <stop offset="100%" stop-color="#2af598"></stop></linearGradient><linearGradient id="99" x1="0%" y1="0%" x2="100%" y2="0%"><stop offset="0%" stop-color="#ffcc00"></stop> <stop offset="100%" stop-color="#00b140"></stop></linearGradient><linearGradient id="100" x1="0%" y1="0%" x2="100%" y2="0%"><stop offset="0%" stop-color="#d51007"></stop> <stop offset="100%" stop-color="#ff8177"></stop></linearGradient><linearGradient id="102" x1="0%" y1="0%" x2="100%" y2="0%"><stop offset="0%" stop-color="#a2b6df"></stop> <stop offset="100%" stop-color="#0c3483"></stop></linearGradient><linearGradient id="103" x1="0%" y1="0%" x2="100%" y2="0%"><stop offset="0%" stop-color="#7ac5d8"></stop> <stop offset="100%" stop-color="#eea2a2"></stop></linearGradient><linearGradient id="104" x1="0%" y1="0%" x2="100%" y2="0%"><stop offset="0%" stop-color="#00ecbc"></stop> <stop offset="100%" stop-color="#007adf"></stop></linearGradient><linearGradient id="105" x1="0%" y1="0%" x2="100%" y2="0%"><stop offset="0%" stop-color="#b88746"></stop> <stop offset="100%" stop-color="#fdf5a6"></stop></linearGradient></defs><g class="iconmbgsvg" transform="translate(39.662445068359375,69.62735748291016)"><g fill="#CDA434" hollow-target="textRect"><g transform="translate(47.545806884765625,0)" mask="url(#aa5b3a33-09ff-4621-a265-fd110061337b)"><g><rect fill="#CDA434" fill-opacity="0" stroke-width="2" x="0" y="0" width="111.00000000000007" height="110.74528584256217" class="image-rect"></rect> <svg x="0" y="0" width="111.00000000000007" height="110.74528584256217" filtersec="colorsb6389530419" class="image-svg-svg primary" style="overflow: visible;"><svg xmlns="http://www.w3.org/2000/svg" viewBox="0 0 100.2300033569336 100"><path fill="#ffffff" d="M38.77 33.73L71.98 100h28.25L50.12 0 0 100h5.55l33.22-66.27z"></path><path fill="#ffffff" d="M50.13 78.2L60.88 100h4.74L38.63 45.27 11.64 100h27.74l10.75-21.8z"></path></svg></svg> </g></g> <g transform="translate(0,23.025466918945312)"><g fill-rule="" stroke="url(#26305135-78ed-45bc-ac61-2f17dd18fab3)" class="tp-name" transform="translate(0,0)" fill="url(#26305135-78ed-45bc-ac61-2f17dd18fab3)"><g transform="scale(1.16)"><g><path d="M11.75-42.66L11.75-5.92 31.11-5.92 31.11 0 4.34 0 4.34-42.66 11.75-42.66ZM50.07 0.59L50.07 0.59Q43.3 0.59 39.1-3.68 34.89-7.94 34.89-15.03L34.89-15.03 34.89-15.91Q34.89-20.65 36.72-24.39 38.55-28.13 41.87-30.21 45.18-32.29 49.25-32.29L49.25-32.29Q55.72-32.29 59.25-28.15 62.78-24.02 62.78-16.46L62.78-16.46 62.78-13.59 42.07-13.59Q42.39-9.67 44.69-7.38 46.99-5.1 50.48-5.1L50.48-5.1Q55.37-5.1 58.45-9.05L58.45-9.05 62.29-5.39Q60.38-2.55 57.2-0.98 54.02 0.59 50.07 0.59ZM49.22-26.57L49.22-26.57Q46.29-26.57 44.49-24.52 42.69-22.47 42.19-18.81L42.19-18.81 55.75-18.81 55.75-19.34Q55.52-22.91 53.85-24.74 52.18-26.57 49.22-26.57ZM67.06-16.08L67.06-16.08Q67.06-23.47 70.53-27.88 74-32.29 79.75-32.29L79.75-32.29Q85.17-32.29 88.27-28.51L88.27-28.51 88.59-31.7 95.01-31.7 95.01-0.97Q95.01 5.27 91.13 8.88 87.25 12.48 80.65 12.48L80.65 12.48Q77.17 12.48 73.84 11.03 70.52 9.58 68.79 7.24L68.79 7.24 72.16 2.96Q75.44 6.86 80.24 6.86L80.24 6.86Q83.79 6.86 85.84 4.94 87.89 3.02 87.89-0.7L87.89-0.7 87.89-2.84Q84.81 0.59 79.69 0.59L79.69 0.59Q74.12 0.59 70.59-3.84 67.06-8.26 67.06-16.08ZM74.15-15.47L74.15-15.47Q74.15-10.69 76.1-7.95 78.05-5.21 81.5-5.21L81.5-5.21Q85.81-5.21 87.89-8.91L87.89-8.91 87.89-22.85Q85.87-26.46 81.56-26.46L81.56-26.46Q78.05-26.46 76.1-23.67 74.15-20.89 74.15-15.47ZM128.53 0L121.26 0Q120.79-0.91 120.44-2.96L120.44-2.96Q117.04 0.59 112.12 0.59L112.12 0.59Q107.34 0.59 104.33-2.14 101.31-4.86 101.31-8.88L101.31-8.88Q101.31-13.95 105.07-16.66 108.84-19.37 115.84-19.37L115.84-19.37 120.21-19.37 120.21-21.45Q120.21-23.91 118.83-25.39 117.45-26.87 114.64-26.87L114.64-26.87Q112.21-26.87 110.65-25.65 109.1-24.43 109.1-22.56L109.1-22.56 101.98-22.56Q101.98-25.17 103.71-27.44 105.44-29.71 108.41-31 111.39-32.29 115.05-32.29L115.05-32.29Q120.62-32.29 123.93-29.49 127.24-26.69 127.32-21.62L127.32-21.62 127.32-7.32Q127.32-3.05 128.53-0.5L128.53-0.5 128.53 0ZM113.44-5.13L113.44-5.13Q115.55-5.13 117.41-6.15 119.27-7.18 120.21-8.91L120.21-8.91 120.21-14.88 116.37-14.88Q112.41-14.88 110.42-13.51 108.43-12.13 108.43-9.61L108.43-9.61Q108.43-7.56 109.79-6.34 111.15-5.13 113.44-5.13ZM142.35-45L142.35 0 135.23 0 135.23-45 142.35-45Z" transform="translate(-4.340000152587891, 45)" stroke-width="0.8" stroke-linejoin="round"></path></g> </g></g> <g fill-rule="" class="tp-slogan" fill="#ffffff" transform="translate(163.40200805664062,42.076795959472655)"> <g transform="scale(1, 1)"><g transform="scale(5.0199999999999845)"><path d="M2.29-3.79L2.29-4.92L3.15-4.92Q3.81-4.92 4.19-5.26Q4.58-5.59 4.58-6.22L4.58-6.22Q4.58-6.83 4.26-7.17Q3.94-7.51 3.28-7.51L3.28-7.51Q2.71-7.51 2.34-7.17Q1.97-6.84 1.97-6.31L1.97-6.31L0.54-6.31Q0.54-6.97 0.89-7.51Q1.24-8.04 1.87-8.35Q2.49-8.65 3.26-8.65L3.26-8.65Q4.54-8.65 5.27-8.01Q6-7.37 6-6.22L6-6.22Q6-5.65 5.63-5.14Q5.27-4.63 4.69-4.38L4.69-4.38Q5.39-4.14 5.76-3.62Q6.12-3.11 6.12-2.39L6.12-2.39Q6.12-1.24 5.33-0.56Q4.55 0.12 3.26 0.12L3.26 0.12Q2.03 0.12 1.25-0.54Q0.46-1.20 0.46-2.29L0.46-2.29L1.89-2.29Q1.89-1.72 2.26-1.37Q2.64-1.02 3.28-1.02L3.28-1.02Q3.94-1.02 4.32-1.37Q4.71-1.72 4.71-2.39L4.71-2.39Q4.71-3.06 4.31-3.43Q3.91-3.79 3.12-3.79L3.12-3.79L2.29-3.79ZM11.74-8.57L11.89-8.57L11.89-7.39L11.71-7.39Q10.52-7.38 9.80-6.74Q9.09-6.10 8.95-4.93L8.95-4.93Q9.64-5.65 10.71-5.65L10.71-5.65Q11.84-5.65 12.49-4.85Q13.14-4.05 13.14-2.79L13.14-2.79Q13.14-1.49 12.38-0.69Q11.61 0.12 10.37 0.12L10.37 0.12Q9.09 0.12 8.30-0.83Q7.51-1.77 7.51-3.30L7.51-3.30L7.51-3.79Q7.51-6.03 8.60-7.30Q9.69-8.57 11.74-8.57L11.74-8.57ZM10.36-4.50L10.36-4.50Q9.89-4.50 9.50-4.24Q9.11-3.97 8.93-3.53L8.93-3.53L8.93-3.10Q8.93-2.15 9.33-1.59Q9.73-1.03 10.36-1.03Q10.99-1.03 11.36-1.51Q11.73-1.98 11.73-2.75Q11.73-3.53 11.36-4.01Q10.98-4.50 10.36-4.50ZM19.84-5.07L19.84-3.59Q19.84-1.75 19.15-0.82Q18.46 0.12 17.06 0.12L17.06 0.12Q15.67 0.12 14.97-0.79Q14.27-1.71 14.26-3.49L14.26-3.49L14.26-4.97Q14.26-6.81 14.94-7.73Q15.63-8.65 17.04-8.65L17.04-8.65Q18.45-8.65 19.13-7.75Q19.82-6.86 19.84-5.07L19.84-5.07ZM18.42-3.26L18.42-5.19Q18.42-6.39 18.09-6.95Q17.76-7.51 17.04-7.51L17.04-7.51Q16.35-7.51 16.02-6.98Q15.69-6.45 15.67-5.32L15.67-5.32L15.67-3.39Q15.67-2.19 16.01-1.61Q16.34-1.02 17.06-1.02L17.06-1.02Q17.74-1.02 18.07-1.56Q18.40-2.10 18.42-3.26L18.42-3.26Z" transform="translate(-0.462890625, 8.6484375)"></path></g></g></g></g></g></g><mask id="aa5b3a33-09ff-4621-a265-fd110061337b"><g fill="white"><g><rect fill-opacity="1" stroke-width="2" x="0" y="0" width="111.00000000000007" height="110.74528584256217" class="image-rect"></rect> <svg x="0" y="0" width="111.00000000000007" height="110.74528584256217" filtersec="colorsb6389530419" class="image-svg-svg primary" style="overflow: visible;"><svg xmlns="http://www.w3.org/2000/svg" viewBox="0 0 100.2300033569336 100"><path d="M38.77 33.73L71.98 100h28.25L50.12 0 0 100h5.55l33.22-66.27z"></path><path d="M50.13 78.2L60.88 100h4.74L38.63 45.27 11.64 100h27.74l10.75-21.8z"></path></svg></svg> </g></g> <g transform="translate(-47.545806884765625,23.025466918945312)"><rect fill="black" fill-opacity="1" x="-3.9" y="-3.9" width="167.89161376953126" height="74.47679595947265"></rect><rect fill="black" fill-opacity="1" x="-3.9" y="-3.9" transform="translate(163.38749701157212,42.076795959472655)" width="104.28759765625" height="51.0254020690918"></rect></g><g transform="translate(-47.545806884765625,23.025466918945312)" fill="black"><g fill-rule="" stroke="#CDA434" class="tp-name" transform="translate(0,0)"><g transform="scale(1.16)"><g><path d="M11.75-42.66L11.75-5.92 31.11-5.92 31.11 0 4.34 0 4.34-42.66 11.75-42.66ZM50.07 0.59L50.07 0.59Q43.3 0.59 39.1-3.68 34.89-7.94 34.89-15.03L34.89-15.03 34.89-15.91Q34.89-20.65 36.72-24.39 38.55-28.13 41.87-30.21 45.18-32.29 49.25-32.29L49.25-32.29Q55.72-32.29 59.25-28.15 62.78-24.02 62.78-16.46L62.78-16.46 62.78-13.59 42.07-13.59Q42.39-9.67 44.69-7.38 46.99-5.1 50.48-5.1L50.48-5.1Q55.37-5.1 58.45-9.05L58.45-9.05 62.29-5.39Q60.38-2.55 57.2-0.98 54.02 0.59 50.07 0.59ZM49.22-26.57L49.22-26.57Q46.29-26.57 44.49-24.52 42.69-22.47 42.19-18.81L42.19-18.81 55.75-18.81 55.75-19.34Q55.52-22.91 53.85-24.74 52.18-26.57 49.22-26.57ZM67.06-16.08L67.06-16.08Q67.06-23.47 70.53-27.88 74-32.29 79.75-32.29L79.75-32.29Q85.17-32.29 88.27-28.51L88.27-28.51 88.59-31.7 95.01-31.7 95.01-0.97Q95.01 5.27 91.13 8.88 87.25 12.48 80.65 12.48L80.65 12.48Q77.17 12.48 73.84 11.03 70.52 9.58 68.79 7.24L68.79 7.24 72.16 2.96Q75.44 6.86 80.24 6.86L80.24 6.86Q83.79 6.86 85.84 4.94 87.89 3.02 87.89-0.7L87.89-0.7 87.89-2.84Q84.81 0.59 79.69 0.59L79.69 0.59Q74.12 0.59 70.59-3.84 67.06-8.26 67.06-16.08ZM74.15-15.47L74.15-15.47Q74.15-10.69 76.1-7.95 78.05-5.21 81.5-5.21L81.5-5.21Q85.81-5.21 87.89-8.91L87.89-8.91 87.89-22.85Q85.87-26.46 81.56-26.46L81.56-26.46Q78.05-26.46 76.1-23.67 74.15-20.89 74.15-15.47ZM128.53 0L121.26 0Q120.79-0.91 120.44-2.96L120.44-2.96Q117.04 0.59 112.12 0.59L112.12 0.59Q107.34 0.59 104.33-2.14 101.31-4.86 101.31-8.88L101.31-8.88Q101.31-13.95 105.07-16.66 108.84-19.37 115.84-19.37L115.84-19.37 120.21-19.37 120.21-21.45Q120.21-23.91 118.83-25.39 117.45-26.87 114.64-26.87L114.64-26.87Q112.21-26.87 110.65-25.65 109.1-24.43 109.1-22.56L109.1-22.56 101.98-22.56Q101.98-25.17 103.71-27.44 105.44-29.71 108.41-31 111.39-32.29 115.05-32.29L115.05-32.29Q120.62-32.29 123.93-29.49 127.24-26.69 127.32-21.62L127.32-21.62 127.32-7.32Q127.32-3.05 128.53-0.5L128.53-0.5 128.53 0ZM113.44-5.13L113.44-5.13Q115.55-5.13 117.41-6.15 119.27-7.18 120.21-8.91L120.21-8.91 120.21-14.88 116.37-14.88Q112.41-14.88 110.42-13.51 108.43-12.13 108.43-9.61L108.43-9.61Q108.43-7.56 109.79-6.34 111.15-5.13 113.44-5.13ZM142.35-45L142.35 0 135.23 0 135.23-45 142.35-45Z" transform="translate(-4.340000152587891, 45)" stroke-width="0.8" stroke-linejoin="round"></path></g> </g></g> <g fill-rule="" class="tp-slogan" transform="translate(163.40200805664062,42.076795959472655)"> <g transform="scale(1, 1)"><g transform="scale(5.0199999999999845)"><path d="M2.29-3.79L2.29-4.92L3.15-4.92Q3.81-4.92 4.19-5.26Q4.58-5.59 4.58-6.22L4.58-6.22Q4.58-6.83 4.26-7.17Q3.94-7.51 3.28-7.51L3.28-7.51Q2.71-7.51 2.34-7.17Q1.97-6.84 1.97-6.31L1.97-6.31L0.54-6.31Q0.54-6.97 0.89-7.51Q1.24-8.04 1.87-8.35Q2.49-8.65 3.26-8.65L3.26-8.65Q4.54-8.65 5.27-8.01Q6-7.37 6-6.22L6-6.22Q6-5.65 5.63-5.14Q5.27-4.63 4.69-4.38L4.69-4.38Q5.39-4.14 5.76-3.62Q6.12-3.11 6.12-2.39L6.12-2.39Q6.12-1.24 5.33-0.56Q4.55 0.12 3.26 0.12L3.26 0.12Q2.03 0.12 1.25-0.54Q0.46-1.20 0.46-2.29L0.46-2.29L1.89-2.29Q1.89-1.72 2.26-1.37Q2.64-1.02 3.28-1.02L3.28-1.02Q3.94-1.02 4.32-1.37Q4.71-1.72 4.71-2.39L4.71-2.39Q4.71-3.06 4.31-3.43Q3.91-3.79 3.12-3.79L3.12-3.79L2.29-3.79ZM11.74-8.57L11.89-8.57L11.89-7.39L11.71-7.39Q10.52-7.38 9.80-6.74Q9.09-6.10 8.95-4.93L8.95-4.93Q9.64-5.65 10.71-5.65L10.71-5.65Q11.84-5.65 12.49-4.85Q13.14-4.05 13.14-2.79L13.14-2.79Q13.14-1.49 12.38-0.69Q11.61 0.12 10.37 0.12L10.37 0.12Q9.09 0.12 8.30-0.83Q7.51-1.77 7.51-3.30L7.51-3.30L7.51-3.79Q7.51-6.03 8.60-7.30Q9.69-8.57 11.74-8.57L11.74-8.57ZM10.36-4.50L10.36-4.50Q9.89-4.50 9.50-4.24Q9.11-3.97 8.93-3.53L8.93-3.53L8.93-3.10Q8.93-2.15 9.33-1.59Q9.73-1.03 10.36-1.03Q10.99-1.03 11.36-1.51Q11.73-1.98 11.73-2.75Q11.73-3.53 11.36-4.01Q10.98-4.50 10.36-4.50ZM19.84-5.07L19.84-3.59Q19.84-1.75 19.15-0.82Q18.46 0.12 17.06 0.12L17.06 0.12Q15.67 0.12 14.97-0.79Q14.27-1.71 14.26-3.49L14.26-3.49L14.26-4.97Q14.26-6.81 14.94-7.73Q15.63-8.65 17.04-8.65L17.04-8.65Q18.45-8.65 19.13-7.75Q19.82-6.86 19.84-5.07L19.84-5.07ZM18.42-3.26L18.42-5.19Q18.42-6.39 18.09-6.95Q17.76-7.51 17.04-7.51L17.04-7.51Q16.35-7.51 16.02-6.98Q15.69-6.45 15.67-5.32L15.67-5.32L15.67-3.39Q15.67-2.19 16.01-1.61Q16.34-1.02 17.06-1.02L17.06-1.02Q17.74-1.02 18.07-1.56Q18.40-2.10 18.42-3.26L18.42-3.26Z" transform="translate(-0.462890625, 8.6484375)"></path></g></g></g></g></mask><defs v-gra="od"><linearGradient x1="0" y1="1" x2="1" y2="0" id="26305135-78ed-45bc-ac61-2f17dd18fab3"><stop offset="0%" stop-color="#95642a"></stop><stop offset="50%" stop-color="#e6d769"></stop><stop offset="100%" stop-color="#95642a"></stop></linearGradient><filter id="42443b3f1de60f6b6fd3b6a9844b4764" filterUnits="objectBoundingBox"><feColorMatrix type="matrix" values="0 0 0 0 0.99609375  0 0 0 0 0.99609375  0 0 0 0 0.99609375  0 0 0 1 0"></feColorMatrix></filter></defs></g></svg>